# Blender 5.1.2
# www.blender.org
mtllib Aldo_model.mtl
o Face
v -2.759385 9.764845 5.372837
v -2.386964 9.911006 5.029834
v -2.094399 10.075429 4.602429
v -2.181869 9.989317 4.048370
v -2.759517 9.884468 3.918279
v -2.852890 10.045709 5.245752
v -2.859509 10.515431 4.197930
v -2.594172 10.189002 5.019493
v -2.503654 10.386623 4.641172
v -2.636368 10.497616 4.296891
v -2.852977 11.044090 5.881593
v -2.850868 11.069819 5.892411
v -2.981225 11.107972 5.980291
v -2.983055 10.997252 5.968192
v -2.914897 11.634467 5.807649
v -2.907508 11.562218 5.806207
v -2.662646 11.643988 5.789418
v -2.654680 11.571145 5.785022
v -2.727808 11.679050 5.821980
v -2.832424 11.674947 5.858615
v -2.828346 11.544003 5.836219
v -2.710718 11.545376 5.836754
v -2.463162 11.715542 5.363795
v -2.598323 10.857900 5.264732
v -2.471097 11.246148 5.280373
v -2.901830 10.629716 5.539400
v -2.757864 11.008626 5.823402
v -2.793537 11.172978 5.848878
v -2.930408 11.222572 5.941066
v -2.947689 10.933645 5.907269
v -3.033213 11.704571 5.895423
v -3.080857 11.572751 5.895763
v -2.533119 11.743273 5.665421
v -2.511351 11.526539 5.611073
v -2.624573 11.812035 5.813275
v -2.793835 11.823655 5.894877
v -3.080857 11.463566 5.914280
v -2.680514 11.445023 5.819366
v -2.697603 10.972269 5.713473
v -2.701408 11.261244 5.774117
v -2.998760 11.279115 6.115232
v -2.905535 10.786913 5.889394
v -2.974151 11.382181 5.919932
v -2.643623 10.920343 5.538842
v -2.571224 11.248406 5.567199
v -2.868353 10.660997 5.757171
v -2.864673 10.442658 5.268802
v -2.626822 10.521210 5.032789
v -2.529058 10.667737 4.743475
v -2.660082 10.824302 4.379625
v -2.872303 10.873754 4.240327
v -2.853350 10.589607 5.339004
v -2.619644 10.720531 5.123200
v -2.657800 11.078853 4.431403
v -2.858492 11.183072 4.217808
v -2.433012 11.262742 4.988176
v -2.502296 11.016865 4.908415
v -2.401762 11.645794 4.970192
v -2.450319 11.295769 4.824878
v -2.816345 11.466129 4.169934
v -2.724985 12.194452 5.745891
v -2.525184 12.046883 5.593358
v -2.644729 12.492043 5.461133
v -2.519230 10.878502 4.841231
v -2.431034 12.213175 5.278624
v -2.634703 12.510986 4.538767
v -2.375870 11.701534 4.747890
v -2.407591 12.161421 4.603819
v -2.617623 11.278401 4.455460
v -2.620428 12.566252 5.000040
v -2.392321 11.743338 4.865741
v -2.389341 12.258509 4.927443
v -2.401722 11.393911 4.773537
v -2.519836 11.616449 4.462514
v -2.739324 11.877478 4.153717
v -2.306758 11.726562 4.878007
v -2.252836 11.740788 4.789167
v -2.219874 11.688641 4.695140
v -2.327203 11.292559 4.833696
v -2.285003 11.387087 4.742199
v -2.358078 11.257421 4.928612
v -2.992244 11.066468 5.963093
v -2.991883 11.060693 5.964459
v -2.869825 11.056591 5.891219
v -2.869538 11.054220 5.892619
v -2.404164 11.470097 4.987175
v -2.449550 11.510130 5.294307
v -2.218146 11.565594 4.679354
v -2.348095 11.496565 4.889588
v -2.294115 11.526312 4.791343
v -2.451469 11.935398 4.469481
v -2.676542 12.250103 4.244859
v -2.373348 11.585089 4.713664
v -3.024702 11.417725 6.040331
v -3.028494 11.509443 5.984160
v -3.044851 11.606864 5.947409
v -3.043070 11.647008 5.936382
v -2.867927 11.553110 5.821213
v -2.911203 11.598343 5.806928
v -3.080857 11.638660 5.895593
v -2.990099 11.671841 5.850090
v -2.986404 11.572456 5.849533
v -2.946823 11.510951 5.873425
v -3.080857 11.518158 5.905022
v -2.966614 11.541704 5.861478
v -2.988251 11.622149 5.849812
v -2.658663 11.607567 5.787220
v -2.522235 11.634906 5.638247
v -2.597883 11.693630 5.727419
v -2.583016 11.548842 5.698047
v -2.590449 11.621236 5.712733
v -2.624573 11.812035 5.813275
v -2.793835 11.823655 5.894877
v -2.724985 12.194452 5.745891
v -2.525184 12.046883 5.593358
v -2.793835 11.823655 5.894877
v -2.724985 12.194452 5.745891
v -2.644729 12.492043 5.461133
v -2.620428 12.566252 5.000040
v -2.697603 10.972269 5.713473
v -2.701408 11.261244 5.774117
v -2.643623 10.920343 5.538842
v -2.571224 11.248406 5.567199
v -3.080857 11.463566 5.914280
v -2.680514 11.445023 5.819366
v -2.974151 11.382181 5.919932
v -2.701408 11.261244 5.774117
v -2.252836 11.740788 4.789167
v -2.219874 11.688641 4.695140
v -2.327203 11.292559 4.833696
v -2.285003 11.387087 4.742199
v -2.358078 11.257421 4.928612
v -2.218146 11.565594 4.679354
v -2.348095 11.496565 4.889588
v -2.294115 11.526312 4.791343
v -2.759385 9.764845 5.372837
v -2.852890 10.045709 5.245752
v -2.864673 10.442658 5.268802
v -2.594172 10.189002 5.019493
v -2.626822 10.521210 5.032789
v -3.033213 11.704571 5.895423
v -2.793835 11.823655 5.894877
v -2.990099 11.671841 5.850090
v -2.832424 11.674947 5.858615
v -2.914897 11.634467 5.807649
v -2.998760 11.279115 6.115232
v -3.024702 11.417725 6.040331
v -3.033213 11.704571 5.895423
v -2.793835 11.823655 5.894877
v -2.990099 11.671841 5.850090
v -2.832424 11.674947 5.858615
v -2.914897 11.634467 5.807649
v -3.102005 9.717576 5.403291
v -3.444625 9.764845 5.372837
v -3.817046 9.911006 5.029834
v -4.109611 10.075429 4.602429
v -4.022141 9.989317 4.048370
v -3.444493 9.884468 3.918279
v -3.102005 9.817516 3.910256
v -3.351120 10.045709 5.245752
v -3.344500 10.515431 4.197930
v -3.102005 9.997658 5.280647
v -3.609838 10.189002 5.019493
v -3.700356 10.386623 4.641172
v -3.567642 10.497616 4.296891
v -3.102005 10.524983 4.179898
v -3.102005 11.115128 6.004655
v -3.102005 10.997557 5.978226
v -3.102005 10.569521 5.650922
v -3.102005 11.180820 5.987595
v -3.102005 10.927453 5.938969
v -3.102005 11.286084 6.136696
v -3.102005 10.755156 5.946645
v -3.102005 11.420355 6.070011
v -3.102005 11.792896 5.938635
v -3.102005 10.604248 5.835021
v -3.102005 11.700133 5.938702
v -3.102005 11.604898 5.971740
v -3.351033 11.044090 5.881593
v -3.353142 11.069819 5.892411
v -3.222785 11.107972 5.980291
v -3.220955 10.997252 5.968192
v -3.289113 11.634467 5.807649
v -3.296501 11.562218 5.806207
v -3.541363 11.643988 5.789418
v -3.549329 11.571145 5.785022
v -3.476202 11.679050 5.821980
v -3.371586 11.674947 5.858615
v -3.375663 11.544003 5.836219
v -3.493292 11.545376 5.836754
v -3.740847 11.715542 5.363795
v -3.605686 10.857900 5.264732
v -3.732913 11.246148 5.280373
v -3.302180 10.629716 5.539400
v -3.446146 11.008626 5.823402
v -3.410472 11.172978 5.848878
v -3.273602 11.222572 5.941066
v -3.256321 10.933645 5.907269
v -3.170797 11.704571 5.895423
v -3.123153 11.572751 5.895763
v -3.670891 11.743273 5.665421
v -3.692659 11.526539 5.611073
v -3.579437 11.812035 5.813275
v -3.410175 11.823655 5.894877
v -3.123153 11.463566 5.914280
v -3.523496 11.445023 5.819366
v -3.506406 10.972269 5.713473
v -3.502602 11.261244 5.774117
v -3.205250 11.279115 6.115232
v -3.298475 10.786913 5.889394
v -3.229859 11.382181 5.919932
v -3.560387 10.920343 5.538842
v -3.632786 11.248406 5.567199
v -3.335656 10.660997 5.757171
v -3.102005 11.516720 6.013454
v -3.102005 10.430017 5.337185
v -3.339336 10.442658 5.268802
v -3.577187 10.521210 5.032789
v -3.674952 10.667737 4.743475
v -3.543928 10.824302 4.379625
v -3.331706 10.873754 4.240327
v -3.102005 10.882677 4.203297
v -3.102005 10.537852 5.388609
v -3.350660 10.589607 5.339004
v -3.584366 10.720531 5.123200
v -3.546210 11.078853 4.431403
v -3.345517 11.183072 4.217808
v -3.102005 11.217171 4.121100
v -3.770997 11.262742 4.988176
v -3.701713 11.016865 4.908415
v -3.802248 11.645794 4.970192
v -3.753691 11.295769 4.824878
v -3.387665 11.466129 4.169934
v -3.102005 11.531963 4.033113
v -3.102005 12.239985 5.847026
v -3.479024 12.194452 5.745891
v -3.678825 12.046883 5.593358
v -3.559280 12.492043 5.461133
v -3.102005 12.576923 5.555575
v -3.684779 10.878502 4.841231
v -3.772975 12.213175 5.278624
v -3.569306 12.510986 4.538767
v -3.102005 12.664818 4.551748
v -3.828139 11.701534 4.747890
v -3.796418 12.161421 4.603819
v -3.586387 11.278401 4.455460
v -3.583582 12.566252 5.000040
v -3.102005 12.705254 5.080136
v -3.811688 11.743338 4.865741
v -3.814669 12.258509 4.927443
v -3.802288 11.393911 4.773537
v -3.684173 11.616449 4.462514
v -3.102005 11.985271 4.040403
v -3.464685 11.877478 4.153717
v -3.897251 11.726562 4.878007
v -3.951174 11.740788 4.789167
v -3.984135 11.688641 4.695140
v -3.876807 11.292559 4.833696
v -3.919007 11.387087 4.742199
v -3.845932 11.257421 4.928612
v -3.102005 11.059568 5.979242
v -3.211766 11.066468 5.963093
v -3.102005 11.059873 5.977539
v -3.212126 11.060693 5.964459
v -3.334185 11.056591 5.891219
v -3.334472 11.054220 5.892619
v -3.799845 11.470097 4.987175
v -3.754460 11.510130 5.294307
v -3.985864 11.565594 4.679354
v -3.855915 11.496565 4.889588
v -3.909894 11.526312 4.791343
v -3.752540 11.935398 4.469481
v -3.102005 12.387093 4.178994
v -3.527467 12.250103 4.244859
v -3.830662 11.585089 4.713664
v -3.179308 11.417725 6.040331
v -3.175516 11.509443 5.984160
v -3.159158 11.606864 5.947409
v -3.102005 11.646895 5.956873
v -3.160939 11.647008 5.936382
v -3.336082 11.553110 5.821213
v -3.292807 11.598343 5.806928
v -3.123153 11.638660 5.895593
v -3.213911 11.671841 5.850090
v -3.217605 11.572456 5.849533
v -3.257186 11.510951 5.873425
v -3.123153 11.518158 5.905022
v -3.237396 11.541704 5.861478
v -3.215758 11.622149 5.849812
v -3.545346 11.607567 5.787220
v -3.681775 11.634906 5.638247
v -3.606127 11.693630 5.727419
v -3.620994 11.548842 5.698047
v -3.613560 11.621236 5.712733
v -3.579437 11.812035 5.813275
v -3.410175 11.823655 5.894877
v -3.479024 12.194452 5.745891
v -3.678825 12.046883 5.593358
v -3.102005 11.792896 5.938635
v -3.410175 11.823655 5.894877
v -3.102005 12.239985 5.847026
v -3.479024 12.194452 5.745891
v -3.559280 12.492043 5.461133
v -3.102005 12.576923 5.555575
v -3.583582 12.566252 5.000040
v -3.102005 12.705254 5.080136
v -3.506406 10.972269 5.713473
v -3.502602 11.261244 5.774117
v -3.560387 10.920343 5.538842
v -3.632786 11.248406 5.567199
v -3.123153 11.463566 5.914280
v -3.523496 11.445023 5.819366
v -3.229859 11.382181 5.919932
v -3.502602 11.261244 5.774117
v -3.951174 11.740788 4.789167
v -3.984135 11.688641 4.695140
v -3.876807 11.292559 4.833696
v -3.919007 11.387087 4.742199
v -3.845932 11.257421 4.928612
v -3.985864 11.565594 4.679354
v -3.855915 11.496565 4.889588
v -3.909894 11.526312 4.791343
v -3.102005 9.717576 5.403291
v -3.444625 9.764845 5.372837
v -3.351120 10.045709 5.245752
v -3.102005 10.430017 5.337185
v -3.339336 10.442658 5.268802
v -3.102005 9.997658 5.280647
v -3.609838 10.189002 5.019493
v -3.577187 10.521210 5.032789
v -3.170797 11.704571 5.895423
v -3.410175 11.823655 5.894877
v -3.213911 11.671841 5.850090
v -3.371586 11.674947 5.858615
v -3.289113 11.634467 5.807649
v -3.102005 11.286084 6.136696
v -3.102005 11.420355 6.070011
v -3.205250 11.279115 6.115232
v -3.179308 11.417725 6.040331
v -3.170797 11.704571 5.895423
v -3.410175 11.823655 5.894877
v -3.213911 11.671841 5.850090
v -3.371586 11.674947 5.858615
v -3.289113 11.634467 5.807649
v -3.102005 9.717576 5.403291
v -3.102005 9.997658 5.280647
v -3.102005 9.717576 5.403291
v -3.102005 9.997658 5.280647
vn -0.0000 1.0000 -0.0000
vn 0.4792 0.4440 0.7571
vn 0.6565 0.7412 -0.1404
vn 0.0039 0.3799 -0.9250
vn 0.5913 0.5923 0.5473
vn 0.1907 0.4877 -0.8519
vn 0.2019 0.2396 0.9497
vn 0.1360 -0.5707 0.8098
vn 0.3102 -0.9419 0.1289
vn 0.2456 0.0015 0.9694
vn 0.5711 -0.0555 0.8190
vn 0.5306 -0.2680 0.8041
vn 0.5658 0.0322 0.8239
vn 0.4418 0.0062 0.8971
vn 0.7516 -0.0756 0.6552
vn 0.6555 -0.2497 0.7127
vn 0.7503 0.0262 0.6606
vn 0.3747 -0.2752 0.8854
vn 0.1854 0.0994 0.9776
vn 0.9229 -0.2738 0.2708
vn 0.7400 -0.6572 0.1430
vn 0.7774 -0.0514 0.6270
vn 0.6196 -0.1857 0.7626
vn 0.8050 -0.3773 0.4578
vn 0.3498 -0.5923 0.7258
vn 0.2344 0.2853 0.9293
vn 0.2250 -0.8514 0.4737
vn 0.9431 0.1643 -0.2892
vn 0.1189 0.0930 -0.9885
vn 0.9568 0.0362 0.2885
vn 0.4935 0.1817 -0.8505
vn 0.2663 -0.4249 0.8652
vn 0.7257 -0.3210 0.6085
vn 0.2975 -0.9382 0.1767
vn 0.7236 -0.5875 0.3624
vn 0.6540 0.0206 -0.7562
vn 0.2549 -0.1606 -0.9535
vn 0.3560 -0.2309 -0.9055
vn 0.2693 0.6285 0.7297
vn 0.7828 0.3608 0.5069
vn 0.9517 0.0712 -0.2988
vn 0.9560 -0.1541 0.2495
vn 0.9771 -0.0270 0.2109
vn 0.7244 -0.1567 -0.6713
vn 0.9434 0.0531 0.3274
vn 0.9453 -0.0740 -0.3178
vn 0.9521 -0.2572 0.1653
vn 0.9084 -0.2659 -0.3226
vn 0.9444 -0.3094 0.1115
vn 0.8052 -0.2450 0.5400
vn 0.2849 0.9537 -0.0963
vn 0.8180 0.5558 0.1483
vn 0.8111 0.5670 -0.1437
vn 0.9941 -0.0126 0.1076
vn 0.9995 0.0284 -0.0130
vn 0.3501 -0.0408 -0.9358
vn 0.7356 -0.1796 -0.6532
vn 0.8331 -0.3250 -0.4475
vn 0.0917 0.8487 0.5208
vn -0.1409 0.8924 -0.4286
vn -0.1006 -0.5615 -0.8213
vn -0.1077 -0.9598 -0.2590
vn 0.1573 -0.4119 0.8976
vn 0.1002 0.0420 0.9941
vn 0.2735 -0.4677 0.8405
vn 0.4081 -0.4487 0.7950
vn 0.5189 0.1096 0.8478
vn 0.9839 -0.1091 0.1413
vn 0.9887 0.0085 0.1493
vn 0.7687 -0.0095 0.6395
vn 0.7933 -0.0428 0.6074
vn 0.8714 -0.1475 0.4679
vn 0.9781 0.0213 0.2069
vn 0.9504 -0.1705 0.2602
vn 0.2880 0.2508 -0.9242
vn 0.2771 0.7388 -0.6143
vn 0.7424 -0.0460 -0.6684
vn 0.7952 0.3155 -0.5178
vn 0.9669 0.0088 -0.2551
vn 0.8327 -0.2110 -0.5120
vn -0.2455 0.1940 -0.9498
vn -0.2499 -0.2465 -0.9364
vn 0.3632 0.3898 0.8463
vn 0.8308 -0.0815 -0.5505
vn 0.3456 0.4875 0.8018
vn 0.8564 0.4717 -0.2100
vn 0.9131 0.3017 0.2743
vn 0.5540 0.2041 0.8071
vn 0.2405 -0.2690 0.9326
vn 0.3419 0.2758 0.8984
vn 0.7718 -0.2411 -0.5884
vn 0.3970 0.4044 0.8239
vn 0.1219 0.6741 0.7285
vn 0.2634 0.7780 0.5704
vn 0.3483 0.3013 0.8877
vn 0.4873 0.0213 0.8730
vn 0.4954 0.0219 0.8684
vn 0.4961 -0.1973 0.8456
vn 0.7326 -0.0822 0.6757
vn 0.7231 -0.0312 0.6900
vn 0.7550 -0.0225 0.6553
vn 0.5986 0.2888 0.7472
vn 0.2051 0.2603 0.9435
vn 0.2636 0.9414 0.2104
vn 0.8775 -0.1626 0.4512
vn 0.3303 -0.0340 0.9433
vn 0.9173 -0.0151 0.3979
vn 0.8743 -0.1214 0.4699
vn 0.8877 -0.1005 0.4494
vn 0.0343 0.4112 0.9109
vn 0.2176 -0.0902 0.9719
vn 0.6802 0.0049 0.7330
vn 0.2642 0.4639 0.8456
vn 0.0837 -0.4836 0.8713
vn -0.4792 0.4440 0.7571
vn -0.6565 0.7412 -0.1404
vn -0.0039 0.3799 -0.9250
vn -0.5913 0.5923 0.5473
vn -0.1907 0.4877 -0.8519
vn -0.2019 0.2396 0.9497
vn -0.1360 -0.5707 0.8098
vn -0.3102 -0.9419 0.1289
vn -0.2456 0.0015 0.9694
vn -0.5711 -0.0555 0.8190
vn -0.5306 -0.2680 0.8041
vn -0.5658 0.0322 0.8239
vn -0.4418 0.0062 0.8971
vn -0.7516 -0.0756 0.6552
vn -0.6555 -0.2497 0.7127
vn -0.7503 0.0262 0.6606
vn -0.3747 -0.2752 0.8854
vn -0.1854 0.0994 0.9776
vn -0.9229 -0.2738 0.2708
vn -0.7400 -0.6572 0.1430
vn -0.7774 -0.0514 0.6270
vn -0.6196 -0.1857 0.7626
vn -0.8050 -0.3773 0.4578
vn -0.3498 -0.5923 0.7258
vn -0.2344 0.2853 0.9293
vn -0.2250 -0.8514 0.4737
vn -0.9431 0.1643 -0.2892
vn -0.1189 0.0930 -0.9885
vn -0.9568 0.0362 0.2885
vn -0.4935 0.1817 -0.8505
vn -0.2663 -0.4249 0.8652
vn -0.7257 -0.3210 0.6085
vn -0.2975 -0.9382 0.1767
vn -0.7236 -0.5875 0.3624
vn -0.6540 0.0206 -0.7562
vn -0.2549 -0.1606 -0.9535
vn -0.3560 -0.2309 -0.9055
vn -0.2693 0.6285 0.7297
vn -0.7828 0.3608 0.5069
vn -0.9517 0.0712 -0.2988
vn -0.9560 -0.1541 0.2495
vn -0.9771 -0.0270 0.2109
vn -0.7244 -0.1567 -0.6713
vn -0.9434 0.0531 0.3274
vn -0.9453 -0.0740 -0.3178
vn -0.9521 -0.2572 0.1653
vn -0.9084 -0.2659 -0.3226
vn -0.9444 -0.3094 0.1115
vn -0.8052 -0.2450 0.5400
vn -0.2849 0.9537 -0.0963
vn -0.8180 0.5558 0.1483
vn -0.8111 0.5670 -0.1437
vn -0.9941 -0.0126 0.1076
vn -0.9995 0.0284 -0.0130
vn -0.3501 -0.0408 -0.9358
vn -0.7356 -0.1796 -0.6532
vn -0.8331 -0.3250 -0.4475
vn -0.0917 0.8487 0.5208
vn 0.1409 0.8924 -0.4286
vn 0.1006 -0.5615 -0.8213
vn 0.1077 -0.9598 -0.2590
vn -0.1573 -0.4119 0.8976
vn -0.1002 0.0420 0.9941
vn -0.2735 -0.4677 0.8405
vn -0.4081 -0.4487 0.7950
vn -0.5189 0.1096 0.8478
vn -0.9839 -0.1091 0.1413
vn -0.9887 0.0085 0.1493
vn -0.7687 -0.0095 0.6395
vn -0.7933 -0.0428 0.6074
vn -0.8714 -0.1475 0.4679
vn -0.9781 0.0213 0.2069
vn -0.9504 -0.1705 0.2602
vn -0.2880 0.2508 -0.9242
vn -0.2771 0.7388 -0.6143
vn -0.7424 -0.0460 -0.6684
vn -0.7952 0.3155 -0.5178
vn -0.9669 0.0088 -0.2551
vn -0.8327 -0.2110 -0.5120
vn 0.2455 0.1940 -0.9498
vn 0.2499 -0.2465 -0.9364
vn -0.3632 0.3898 0.8463
vn -0.8308 -0.0815 -0.5505
vn -0.3456 0.4875 0.8018
vn -0.8564 0.4717 -0.2100
vn -0.9131 0.3017 0.2743
vn -0.5540 0.2041 0.8071
vn -0.2405 -0.2690 0.9326
vn -0.3419 0.2758 0.8984
vn -0.7718 -0.2411 -0.5884
vn -0.3970 0.4044 0.8239
vn -0.1219 0.6741 0.7285
vn -0.2634 0.7780 0.5704
vn -0.3483 0.3013 0.8877
vn -0.4873 0.0213 0.8730
vn -0.4954 0.0219 0.8684
vn -0.4961 -0.1973 0.8456
vn -0.7326 -0.0822 0.6757
vn -0.7231 -0.0312 0.6900
vn -0.7550 -0.0225 0.6553
vn -0.5986 0.2888 0.7472
vn -0.2051 0.2603 0.9435
vn -0.2636 0.9414 0.2104
vn -0.8775 -0.1626 0.4512
vn -0.3303 -0.0340 0.9433
vn -0.9173 -0.0151 0.3979
vn -0.8743 -0.1214 0.4699
vn -0.8877 -0.1005 0.4494
vn -0.0343 0.4112 0.9109
vn -0.2176 -0.0902 0.9719
vn -0.6802 0.0049 0.7330
vn -0.2642 0.4639 0.8456
vn -0.0837 -0.4836 0.8713
vt 0.529225 0.707601
vt 0.513385 0.794464
vt 0.645334 0.735153
vt 0.595795 0.825935
vt 0.411991 0.996284
vt 0.272335 0.930185
vt 0.305866 0.825361
vt 0.428403 0.829782
vt 0.000250 0.000250
vt 0.000250 0.211270
vt 0.069712 0.208421
vt 0.099537 0.020220
vt 0.272335 0.714283
vt 0.333855 0.707601
vt 0.136270 0.203107
vt 0.271836 0.051493
vt 0.770163 0.154051
vt 0.803320 0.151917
vt 0.818478 0.184681
vt 0.770163 0.172227
vt 0.770163 0.116141
vt 0.770163 0.096654
vt 0.813323 0.098501
vt 0.802775 0.116050
vt 0.879750 0.474569
vt 0.770163 0.488150
vt 0.645833 0.762513
vt 0.702672 0.795777
vt 0.712657 0.730821
vt 0.645833 0.707601
vt 0.770163 0.045262
vt 0.825897 0.054734
vt 0.841574 0.130021
vt 0.869944 0.120866
vt 0.859303 0.169888
vt 0.842203 0.140537
vt 0.801224 0.303865
vt 0.773603 0.308790
vt 0.773603 0.289130
vt 0.801775 0.289043
vt 0.307200 0.407668
vt 0.313457 0.386542
vt 0.339883 0.382190
vt 0.328974 0.413678
vt 0.898345 0.310379
vt 0.917662 0.325186
vt 0.936980 0.339993
vt 0.909701 0.360503
vt 0.878909 0.320837
vt 0.287031 0.390893
vt 0.272335 0.381883
vt 0.280127 0.352520
vt 0.859214 0.363969
vt 0.847704 0.319613
vt 0.848920 0.280556
vt 0.813582 0.270697
vt 0.773603 0.256563
vt 0.893015 0.251032
vt 0.884006 0.280965
vt 0.460283 0.192581
vt 0.445478 0.307530
vt 0.360196 0.300698
vt 0.377204 0.203963
vt 0.272335 0.461729
vt 0.331534 0.537261
vt 0.384641 0.117596
vt 0.319117 0.121193
vt 0.290344 0.222750
vt 0.323958 0.214823
vt 0.298379 0.299099
vt 0.278475 0.270917
vt 0.887918 0.110021
vt 0.276536 0.155147
vt 0.770163 0.000250
vt 0.836987 0.017176
vt 0.787814 0.328449
vt 0.807678 0.279870
vt 0.773603 0.272847
vt 0.112188 0.777128
vt 0.109457 0.827323
vt 0.155537 0.795843
vt 0.155537 0.767191
vt 0.000000 0.000000
vt 0.538008 0.098609
vt 0.469937 0.069095
vt 0.657888 0.068865
vt 0.757279 0.110851
vt 0.724150 0.205754
vt 0.620137 0.149715
vt 0.000250 0.317961
vt 0.065896 0.315300
vt 0.550649 0.000249
vt 0.129196 0.300549
vt 0.458767 0.917996
vt 0.526545 0.912183
vt 0.536049 0.955105
vt 0.463287 0.949841
vt 0.505929 0.155467
vt 0.445234 0.110921
vt 0.645833 0.840755
vt 0.717132 0.855551
vt 0.070015 0.407562
vt 0.129877 0.376476
vt 0.000250 0.417733
vt 0.000250 0.511628
vt 0.082587 0.491991
vt 0.903689 0.563333
vt 0.770163 0.588651
vt 0.282351 0.577118
vt 0.420699 0.594905
vt 0.359175 0.672989
vt 0.702106 0.280033
vt 0.585577 0.209782
vt 0.408411 0.444817
vt 0.527186 0.434390
vt 0.762845 0.316587
vt 0.769664 0.401943
vt 0.689738 0.338695
vt 0.318065 0.445166
vt 0.561995 0.249135
vt 0.579520 0.334190
vt 0.531864 0.320105
vt 0.805430 0.232288
vt 0.886783 0.196215
vt 0.910937 0.754853
vt 0.906679 0.892439
vt 0.770163 0.888567
vt 0.770163 0.730962
vt 0.523858 0.617562
vt 0.494237 0.707102
vt 0.622555 0.597182
vt 0.632739 0.702749
vt 0.555669 0.466106
vt 0.591779 0.456768
vt 0.000250 0.646838
vt 0.105560 0.614686
vt 0.763721 0.524590
vt 0.678798 0.438953
vt 0.592207 0.364694
vt 0.732278 0.707601
vt 0.749924 0.742923
vt 0.756336 0.773251
vt 0.724629 0.737933
vt 0.756336 0.802970
vt 0.717631 0.772729
vt 0.055367 0.767191
vt 0.064342 0.798600
vt 0.098952 0.802880
vt 0.091660 0.772876
vt 0.164665 0.767191
vt 0.156036 0.815405
vt 0.192853 0.815405
vt 0.185690 0.786509
vt 0.770163 0.137479
vt 0.800034 0.139537
vt 0.800141 0.134973
vt 0.770163 0.134728
vt 0.836634 0.135884
vt 0.836548 0.133750
vt 0.526736 0.381742
vt 0.434432 0.385602
vt 0.549701 0.320082
vt 0.555039 0.392159
vt 0.552463 0.460801
vt 0.583452 0.403568
vt 0.578488 0.467351
vt 0.108958 0.858849
vt 0.000250 0.766692
vt 0.124287 0.725831
vt 0.770163 0.999750
vt 0.894200 0.980105
vt 0.726892 0.632922
vt 0.668384 0.533539
vt 0.604995 0.423065
vt 0.055367 0.890241
vt 0.101827 0.894855
vt 0.062375 0.856214
vt 0.770163 0.272418
vt 0.789221 0.270247
vt 0.784342 0.299306
vt 0.770163 0.298719
vt 0.016221 0.844607
vt 0.040271 0.838028
vt 0.037870 0.854369
vt 0.035468 0.870709
vt 0.017675 0.875630
vt 0.770163 0.243674
vt 0.790352 0.242890
vt 0.008733 0.813413
vt 0.046163 0.814418
vt 0.054868 0.767191
vt 0.000249 0.767191
vt 0.770163 0.354795
vt 0.770163 0.327125
vt 0.784873 0.311280
vt 0.770163 0.311246
vt 0.023424 0.908138
vt 0.017106 0.888035
vt 0.029446 0.889423
vt 0.837114 0.283272
vt 0.756835 0.734272
vt 0.759910 0.707601
vt 0.765439 0.711720
vt 0.765439 0.743512
vt 0.824206 0.296764
vt 0.825308 0.285989
vt 0.823104 0.307539
vt 0.800674 0.318687
vt 0.300942 0.428794
vt 0.283819 0.412422
vt 0.285425 0.401657
vt 0.939346 0.430552
vt 0.903689 0.617319
vt 0.770163 0.589150
vt 0.576984 0.333006
vt 0.615700 0.418170
vt 0.607790 0.454317
vt 0.601697 0.363486
vt 0.428902 0.707601
vt 0.440643 0.790313
vt 0.600079 0.925410
vt 0.770163 0.203625
vt 0.798090 0.201546
s 0
usemtl Material.003
f 1/1/1 6/2/1 137/2/1 136/1/1
f 1/1/2 2/3/2 8/4/2 6/2/2
f 4/5/3 10/6/3 9/7/3 3/8/3
f 159/9/4 166/10/4 7/11/4 5/12/4
f 3/8/5 9/7/5 8/13/5 2/14/5
f 5/12/6 7/11/6 10/15/6 4/16/6
f 167/17/7 13/18/7 29/19/7 170/20/7
f 168/21/8 171/22/8 30/23/8 14/24/8
f 61/25/1 235/26/1 301/26/1 117/25/1
f 169/27/9 26/28/9 46/29/9 176/30/9
f 171/22/10 173/31/10 42/32/10 30/23/10
f 11/33/11 27/34/11 28/35/11 12/36/11
f 11/33/12 14/24/12 30/23/12 27/34/12
f 12/36/13 28/35/13 29/19/13 13/18/13
f 106/37/14 100/38/14 32/39/14 102/40/14
f 111/41/15 110/42/15 34/43/15 108/44/15
f 17/45/16 109/46/16 33/47/16 35/48/16 19/49/16
f 18/50/17 22/51/17 38/52/17 34/43/17 110/42/17
f 19/49/18 35/48/18 36/53/18 20/54/18
f 21/55/19 103/56/19 37/57/19 38/58/19 22/59/19
f 24/60/20 25/61/20 45/62/20 44/63/20
f 35/64/1 62/65/1 115/65/1 112/64/1
f 26/66/21 24/60/21 44/63/21 46/67/21
f 27/68/22 39/69/22 40/70/22 28/71/22
f 27/34/23 30/23/23 42/32/23 39/72/23
f 42/73/24 46/67/24 44/63/24 39/69/24
f 173/31/25 176/74/25 46/75/25 42/32/25
f 36/53/1 31/76/1 141/76/1 142/53/1
f 105/77/26 104/78/26 37/57/26 103/56/26
f 170/79/27 29/80/27 41/81/27 172/82/27
f 40/70/1 39/69/1 120/69/1 121/70/1
f 216/83/1 162/83/1 328/83/1 326/83/1
f 48/84/1 47/85/1 138/85/1 140/84/1
f 9/86/28 10/87/28 50/88/28 49/89/28
f 7/11/29 166/10/29 222/90/29 51/91/29
f 8/92/30 9/86/30 49/89/30 48/84/30
f 10/15/31 7/11/31 51/91/31 50/93/31
f 216/94/32 47/95/32 52/96/32 223/97/32
f 47/85/33 48/84/33 53/98/33 52/99/33
f 169/27/34 223/100/34 52/101/34 26/28/34
f 24/60/35 26/66/35 52/99/35 53/98/35
f 50/93/36 51/91/36 55/102/36 54/103/36
f 51/91/37 222/90/37 228/104/37 55/102/37
f 55/102/38 228/104/38 234/105/38 60/106/38
f 61/25/39 63/107/39 239/108/39 235/26/39
f 61/109/40 62/65/40 65/110/40 63/111/40
f 49/89/41 50/88/41 54/112/41 64/113/41
f 48/84/42 49/89/42 64/113/42 53/98/42
f 62/65/43 23/114/43 58/115/43 65/110/43
f 54/112/44 55/116/44 60/117/44 69/118/44
f 33/119/45 23/114/45 62/65/45 35/64/45
f 54/112/46 69/118/46 57/120/46 64/113/46
f 24/60/47 53/98/47 64/113/47 57/120/47
f 57/120/48 69/118/48 59/121/48 56/122/48
f 24/60/49 57/120/49 56/122/49 25/61/49
f 43/123/1 40/124/1 127/124/1 126/123/1
f 34/43/50 38/52/50 40/70/50 45/62/50
f 248/83/1 239/83/1 304/83/1 306/83/1
f 70/125/51 66/126/51 243/127/51 248/128/51
f 65/110/52 72/129/52 70/130/52 63/111/52
f 72/129/53 68/131/53 66/132/53 70/130/53
f 58/115/54 71/133/54 72/129/54 65/110/54
f 71/133/55 67/134/55 68/131/55 72/129/55
f 234/105/56 253/135/56 75/136/56 60/106/56
f 60/117/57 75/137/57 74/138/57 69/118/57
f 73/139/58 59/121/58 69/118/58 74/138/58
f 58/140/59 76/141/59 77/142/59 71/143/59
f 71/143/60 77/142/60 78/144/60 67/145/60
f 59/146/61 73/147/61 80/148/61 79/149/61
f 56/150/62 59/151/62 79/152/62 81/153/62
f 167/17/63 261/154/63 82/155/63 13/18/63
f 14/24/64 83/156/64 263/157/64 168/21/64
f 12/36/65 85/158/65 84/159/65 11/33/65
f 12/36/66 13/18/66 82/155/66 85/158/66
f 11/33/67 84/159/67 83/156/67 14/24/67
f 56/122/68 86/160/68 87/161/68 25/61/68
f 86/160/69 58/115/69 23/114/69 87/161/69
f 81/162/70 89/163/70 86/160/70 56/122/70
f 89/163/71 76/164/71 58/115/71 86/160/71
f 76/164/72 89/163/72 90/165/72 77/166/72
f 77/166/1 90/165/1 135/165/1 128/166/1
f 80/148/1 88/167/1 133/167/1 131/148/1
f 89/163/1 81/162/1 132/162/1 134/163/1
f 33/119/73 108/44/73 34/43/73 87/161/73 23/114/73
f 25/61/74 87/161/74 34/43/74 45/62/74
f 253/135/75 273/168/75 92/169/75 75/136/75
f 273/170/76 243/127/76 66/126/76 92/171/76
f 75/137/77 92/172/77 91/173/77 74/138/77
f 92/172/78 66/132/78 68/131/78 91/173/78
f 67/134/79 93/174/79 91/173/79 68/131/79
f 93/174/80 73/139/80 74/138/80 91/173/80
f 67/175/81 78/176/81 88/167/81 93/177/81
f 73/147/82 93/177/82 88/167/82 80/148/82
f 215/178/83 95/179/83 96/180/83 178/181/83
f 95/182/84 37/183/84 104/184/84 32/185/84 96/186/84
f 174/187/85 94/188/85 95/179/85 215/178/85
f 94/189/86 43/190/86 37/183/86 95/182/86
f 94/188/1 174/187/1 337/187/1 147/188/1
f 29/191/87 43/190/87 94/189/87 41/192/87
f 28/35/88 40/124/88 43/123/88 29/19/88
f 31/76/89 36/53/89 175/193/89 177/194/89
f 178/181/90 96/180/90 97/195/90 279/196/90
f 31/197/91 97/198/91 96/186/91 32/185/91 100/199/91
f 279/196/92 97/195/92 31/76/92 177/194/92
f 98/200/93 105/77/93 103/56/93 21/55/93
f 16/201/94 102/202/94 105/203/94 98/204/94
f 102/40/95 32/39/95 104/78/95 105/77/95
f 99/205/96 106/37/96 102/40/96 16/206/96
f 15/207/97 101/208/97 106/37/97 99/205/97
f 101/208/98 31/76/98 100/38/98 106/37/98
f 109/209/99 111/41/99 108/44/99 33/119/99
f 17/210/100 107/211/100 111/41/100 109/209/100
f 107/211/101 18/50/101 110/42/101 111/41/101
f 115/212/102 114/25/102 113/53/102 112/48/102
f 62/65/1 61/109/1 114/109/1 115/65/1
f 61/25/1 36/53/1 113/53/1 114/25/1
f 36/53/1 35/48/1 112/48/1 113/53/1
f 301/26/103 299/193/103 116/53/103 117/25/103
f 235/83/1 175/83/1 299/83/1 301/83/1
f 36/53/1 61/25/1 117/25/1 116/53/1
f 175/193/1 36/53/1 116/53/1 299/193/1
f 118/213/104 119/125/104 306/128/104 304/214/104
f 63/111/1 70/130/1 119/130/1 118/111/1
f 239/108/1 63/107/1 118/107/1 304/108/1
f 70/125/1 248/128/1 306/128/1 119/125/1
f 122/63/105 123/62/105 121/70/105 120/69/105
f 39/69/1 44/63/1 122/63/1 120/69/1
f 44/63/1 45/62/1 123/62/1 122/63/1
f 45/62/1 40/70/1 121/70/1 123/62/1
f 125/58/106 124/57/106 126/123/106 127/124/106
f 40/70/1 38/52/1 125/52/1 127/70/1
f 37/183/1 43/190/1 126/190/1 124/183/1
f 38/58/1 37/57/1 124/57/1 125/58/1
f 134/163/107 132/162/107 130/215/107 135/165/107
f 128/166/108 135/165/108 133/216/108 129/217/108
f 135/165/109 130/215/109 131/218/109 133/216/109
f 79/149/1 80/148/1 131/148/1 130/149/1
f 78/144/1 77/142/1 128/142/1 129/144/1
f 88/167/1 78/176/1 129/176/1 133/167/1
f 90/165/1 89/163/1 134/163/1 135/165/1
f 81/153/1 79/152/1 130/152/1 132/153/1
f 323/219/110 136/1/110 137/2/110 328/220/110
f 328/220/111 137/2/111 138/95/111 326/94/111
f 137/2/112 139/4/112 140/221/112 138/95/112
f 323/219/1 328/220/1 348/220/1 347/219/1
f 153/83/1 1/83/1 136/83/1 323/83/1
f 8/92/1 48/84/1 140/84/1 139/92/1
f 6/2/1 8/4/1 139/4/1 137/2/1
f 47/95/1 216/94/1 326/94/1 138/95/1
f 143/208/1 145/207/1 152/207/1 150/208/1
f 15/83/1 20/83/1 144/83/1 145/83/1
f 101/208/1 15/207/1 145/207/1 143/208/1
f 31/76/1 101/208/1 143/208/1 141/76/1
f 20/54/1 36/53/1 142/53/1 144/54/1
f 336/222/113 146/223/113 147/188/113 337/187/113
f 174/83/1 172/83/1 336/83/1 337/83/1
f 172/82/1 41/81/1 146/81/1 336/82/1
f 41/192/1 94/189/1 147/189/1 146/192/1
f 152/207/114 151/54/114 149/53/114 148/76/114 150/208/114
f 144/54/1 142/53/1 149/53/1 151/54/1
f 142/53/1 141/76/1 148/76/1 149/53/1
f 145/83/1 144/83/1 151/83/1 152/83/1
f 141/76/1 143/208/1 150/208/1 148/76/1
f 346/83/1 345/83/1 347/83/1 348/83/1
f 153/83/1 323/83/1 347/83/1 345/83/1
f 162/83/1 153/83/1 345/83/1 346/83/1
f 328/83/1 162/83/1 346/83/1 348/83/1
f 154/1/1 324/1/1 325/2/1 160/2/1
f 154/1/115 160/2/115 163/4/115 155/3/115
f 157/5/116 156/8/116 164/7/116 165/6/116
f 159/9/117 158/12/117 161/11/117 166/10/117
f 156/8/118 155/14/118 163/13/118 164/7/118
f 158/12/119 157/16/119 165/15/119 161/11/119
f 167/17/120 170/20/120 197/19/120 181/18/120
f 168/21/121 182/24/121 198/23/121 171/22/121
f 236/25/1 302/25/1 301/26/1 235/26/1
f 169/27/122 176/30/122 214/29/122 194/28/122
f 171/22/123 198/23/123 210/32/123 173/31/123
f 179/33/124 180/36/124 196/35/124 195/34/124
f 179/33/125 195/34/125 198/23/125 182/24/125
f 180/36/126 181/18/126 197/19/126 196/35/126
f 289/37/127 285/40/127 200/39/127 283/38/127
f 294/41/128 291/44/128 202/43/128 293/42/128
f 185/45/129 187/49/129 203/48/129 201/47/129 292/46/129
f 186/50/130 293/42/130 202/43/130 206/52/130 190/51/130
f 187/49/131 188/54/131 204/53/131 203/48/131
f 189/55/132 190/59/132 206/58/132 205/57/132 286/56/132
f 192/60/133 212/63/133 213/62/133 193/61/133
f 203/64/1 295/64/1 298/65/1 237/65/1
f 194/66/134 214/67/134 212/63/134 192/60/134
f 195/68/135 196/71/135 208/70/135 207/69/135
f 195/34/136 207/72/136 210/32/136 198/23/136
f 210/73/137 207/69/137 212/63/137 214/67/137
f 173/31/138 210/32/138 214/75/138 176/74/138
f 204/53/1 332/53/1 331/76/1 199/76/1
f 288/77/139 286/56/139 205/57/139 287/78/139
f 170/79/140 172/82/140 209/81/140 197/80/140
f 208/70/1 308/70/1 307/69/1 207/69/1
f 218/84/1 330/84/1 327/85/1 217/85/1
f 164/86/141 219/89/141 220/88/141 165/87/141
f 161/11/142 221/91/142 222/90/142 166/10/142
f 163/92/143 218/84/143 219/89/143 164/86/143
f 165/15/144 220/93/144 221/91/144 161/11/144
f 216/94/145 223/97/145 224/96/145 217/95/145
f 217/85/146 224/99/146 225/98/146 218/84/146
f 169/27/147 194/28/147 224/101/147 223/100/147
f 192/60/148 225/98/148 224/99/148 194/66/148
f 220/93/149 226/103/149 227/102/149 221/91/149
f 221/91/150 227/102/150 228/104/150 222/90/150
f 227/102/151 233/106/151 234/105/151 228/104/151
f 236/25/152 235/26/152 239/108/152 238/107/152
f 236/109/153 238/111/153 241/110/153 237/65/153
f 219/89/154 240/113/154 226/112/154 220/88/154
f 218/84/155 225/98/155 240/113/155 219/89/155
f 237/65/156 241/110/156 231/115/156 191/114/156
f 226/112/157 246/118/157 233/117/157 227/116/157
f 201/119/158 203/64/158 237/65/158 191/114/158
f 226/112/159 240/113/159 230/120/159 246/118/159
f 192/60/160 230/120/160 240/113/160 225/98/160
f 230/120/161 229/122/161 232/121/161 246/118/161
f 192/60/162 193/61/162 229/122/162 230/120/162
f 211/123/1 313/123/1 314/124/1 208/124/1
f 202/43/163 213/62/163 208/70/163 206/52/163
f 247/125/164 248/128/164 243/127/164 242/126/164
f 241/110/165 238/111/165 247/130/165 250/129/165
f 250/129/166 247/130/166 242/132/166 245/131/166
f 231/115/167 241/110/167 250/129/167 249/133/167
f 249/133/168 250/129/168 245/131/168 244/134/168
f 234/105/169 233/106/169 254/136/169 253/135/169
f 233/117/170 246/118/170 252/138/170 254/137/170
f 251/139/171 252/138/171 246/118/171 232/121/171
f 231/140/172 249/143/172 256/142/172 255/141/172
f 249/143/173 244/145/173 257/144/173 256/142/173
f 232/146/174 258/149/174 259/148/174 251/147/174
f 229/150/175 260/153/175 258/152/175 232/151/175
f 167/17/176 181/18/176 262/155/176 261/154/176
f 182/24/177 168/21/177 263/157/177 264/156/177
f 180/36/178 179/33/178 265/159/178 266/158/178
f 180/36/179 266/158/179 262/155/179 181/18/179
f 179/33/180 182/24/180 264/156/180 265/159/180
f 229/122/181 193/61/181 268/161/181 267/160/181
f 267/160/182 268/161/182 191/114/182 231/115/182
f 260/162/183 229/122/183 267/160/183 270/163/183
f 270/163/184 267/160/184 231/115/184 255/164/184
f 255/164/185 256/166/185 271/165/185 270/163/185
f 256/166/1 315/166/1 322/165/1 271/165/1
f 259/148/1 318/148/1 320/167/1 269/167/1
f 270/163/1 321/163/1 319/162/1 260/162/1
f 201/119/186 191/114/186 268/161/186 202/43/186 291/44/186
f 193/61/187 213/62/187 202/43/187 268/161/187
f 253/135/188 254/136/188 274/169/188 273/168/188
f 273/170/189 274/171/189 242/126/189 243/127/189
f 254/137/190 252/138/190 272/173/190 274/172/190
f 274/172/191 272/173/191 245/131/191 242/132/191
f 244/134/192 245/131/192 272/173/192 275/174/192
f 275/174/193 272/173/193 252/138/193 251/139/193
f 244/175/194 275/177/194 269/167/194 257/176/194
f 251/147/195 259/148/195 269/167/195 275/177/195
f 215/178/196 178/181/196 278/180/196 277/179/196
f 277/182/197 278/186/197 200/185/197 287/184/197 205/183/197
f 174/187/198 215/178/198 277/179/198 276/188/198
f 276/189/199 277/182/199 205/183/199 211/190/199
f 276/188/1 339/188/1 337/187/1 174/187/1
f 197/191/200 209/192/200 276/189/200 211/190/200
f 196/35/201 197/19/201 211/123/201 208/124/201
f 199/76/202 177/194/202 175/193/202 204/53/202
f 178/181/203 279/196/203 280/195/203 278/180/203
f 199/197/204 283/199/204 200/185/204 278/186/204 280/198/204
f 279/196/205 177/194/205 199/76/205 280/195/205
f 281/200/206 189/55/206 286/56/206 288/77/206
f 184/201/207 281/204/207 288/203/207 285/202/207
f 285/40/208 288/77/208 287/78/208 200/39/208
f 282/205/209 184/206/209 285/40/209 289/37/209
f 183/207/210 282/205/210 289/37/210 284/208/210
f 284/208/211 289/37/211 283/38/211 199/76/211
f 292/209/212 201/119/212 291/44/212 294/41/212
f 185/210/213 292/209/213 294/41/213 290/211/213
f 290/211/214 294/41/214 293/42/214 186/50/214
f 298/212/215 295/48/215 296/53/215 297/25/215
f 237/65/1 298/65/1 297/109/1 236/109/1
f 236/25/1 297/25/1 296/53/1 204/53/1
f 204/53/1 296/53/1 295/48/1 203/48/1
f 301/26/216 302/25/216 300/53/216 299/193/216
f 204/53/1 300/53/1 302/25/1 236/25/1
f 175/193/1 299/193/1 300/53/1 204/53/1
f 303/213/217 304/214/217 306/128/217 305/125/217
f 238/111/1 303/111/1 305/130/1 247/130/1
f 239/108/1 304/108/1 303/107/1 238/107/1
f 247/125/1 305/125/1 306/128/1 248/128/1
f 309/63/218 307/69/218 308/70/218 310/62/218
f 207/69/1 307/69/1 309/63/1 212/63/1
f 212/63/1 309/63/1 310/62/1 213/62/1
f 213/62/1 310/62/1 308/70/1 208/70/1
f 312/58/219 314/124/219 313/123/219 311/57/219
f 208/70/1 314/70/1 312/52/1 206/52/1
f 205/183/1 311/183/1 313/190/1 211/190/1
f 206/58/1 312/58/1 311/57/1 205/57/1
f 321/163/220 322/165/220 317/215/220 319/162/220
f 315/166/221 316/217/221 320/216/221 322/165/221
f 322/165/222 320/216/222 318/218/222 317/215/222
f 258/149/1 317/149/1 318/148/1 259/148/1
f 257/144/1 316/144/1 315/142/1 256/142/1
f 269/167/1 320/167/1 316/176/1 257/176/1
f 271/165/1 322/165/1 321/163/1 270/163/1
f 260/153/1 319/153/1 317/152/1 258/152/1
f 323/219/223 328/220/223 325/2/223 324/1/223
f 328/220/224 326/94/224 327/95/224 325/2/224
f 325/2/225 327/95/225 330/221/225 329/4/225
f 153/83/1 323/83/1 324/83/1 154/83/1
f 163/92/1 329/92/1 330/84/1 218/84/1
f 160/2/1 325/2/1 329/4/1 163/4/1
f 217/95/1 327/95/1 326/94/1 216/94/1
f 333/208/1 342/208/1 344/207/1 335/207/1
f 183/83/1 335/83/1 334/83/1 188/83/1
f 284/208/1 333/208/1 335/207/1 183/207/1
f 199/76/1 331/76/1 333/208/1 284/208/1
f 188/54/1 334/54/1 332/53/1 204/53/1
f 336/222/226 337/187/226 339/188/226 338/223/226
f 172/82/1 336/82/1 338/81/1 209/81/1
f 209/192/1 338/192/1 339/189/1 276/189/1
f 344/207/227 342/208/227 340/76/227 341/53/227 343/54/227
f 334/54/1 343/54/1 341/53/1 332/53/1
f 332/53/1 341/53/1 340/76/1 331/76/1
f 335/83/1 344/83/1 343/83/1 334/83/1
f 331/76/1 340/76/1 342/208/1 333/208/1
o LEye
v -3.424927 11.537908 5.660905
v -3.372715 11.542871 5.760785
v -3.485147 11.543640 5.760314
v -3.514071 11.603250 5.663472
v -3.419514 11.639319 5.604091
v -3.332152 11.602003 5.664234
v -3.429593 11.611281 5.825081
v -3.516954 11.648598 5.764938
v -3.476391 11.707730 5.668388
v -3.363959 11.706961 5.668859
v -3.335035 11.647351 5.765701
v -3.424180 11.712693 5.768267
v -3.460389 11.525933 5.709911
v -3.394303 11.525481 5.710188
v -3.429700 11.528851 5.768619
v -3.339772 11.563156 5.712145
v -3.370461 11.560239 5.653437
v -3.477390 11.560971 5.652989
v -3.512787 11.564341 5.711420
v -3.421811 11.582172 5.618086
v -3.474209 11.620579 5.619595
v -3.367279 11.619847 5.620043
v -3.341466 11.589811 5.771785
v -3.317623 11.624568 5.715034
v -3.463132 11.569061 5.806412
v -3.397046 11.568609 5.806689
v -3.531483 11.626033 5.714138
v -3.514482 11.590995 5.771061
v -3.452061 11.681992 5.622484
v -3.507640 11.660789 5.657387
v -3.334624 11.659606 5.658112
v -3.385975 11.681540 5.622761
v -3.374897 11.630022 5.809578
v -3.481827 11.630754 5.809130
v -3.509335 11.687445 5.717028
v -3.419406 11.721750 5.660553
v -3.336319 11.686260 5.717752
v -3.427296 11.668428 5.811086
v -3.371716 11.689630 5.776183
v -3.478645 11.690362 5.775735
v -3.454803 11.725120 5.718985
v -3.388717 11.724668 5.719261
vn -0.0056 -0.9705 -0.2412
vn 0.5669 -0.8227 0.0409
vn -0.3081 -0.8485 -0.4303
vn -0.1896 -0.6757 -0.7123
vn 0.1869 -0.6898 -0.6995
vn 0.7677 -0.5766 0.2795
vn -0.2906 -0.7724 0.5647
vn -0.9403 -0.2762 -0.1989
vn -0.3193 0.1591 -0.9342
vn 0.7757 -0.0337 -0.6302
vn 0.5864 -0.5333 0.6098
vn -0.6239 -0.5191 0.5842
vn -0.9339 0.0672 -0.3512
vn 0.0066 0.4000 -0.9165
vn 0.9600 0.0115 -0.2797
vn 0.1932 0.2261 0.9548
vn -0.6289 0.4053 0.6635
vn -0.5669 0.8227 -0.0409
vn 0.2798 0.9405 -0.1930
vn 0.7357 0.5354 0.4148
vn 0.3081 0.8485 0.4303
vn 0.5694 0.7650 0.3008
vn 0.5913 0.8064 0.0072
vn 0.0056 0.9705 0.2412
vn 0.0071 0.9986 -0.0533
vn -0.2609 0.9417 -0.2123
vn -0.2991 0.8646 0.4038
vn -0.5562 0.7921 0.2514
vn -0.7330 0.5807 0.3543
vn -0.1869 0.6898 0.6995
vn -0.3546 0.4713 0.8075
vn -0.2003 0.2406 0.9497
vn 0.1896 0.6757 0.7123
vn 0.3490 0.4438 0.8254
vn 0.6153 0.3600 0.7012
vn 0.9403 0.2762 0.1989
vn 0.9506 0.2926 -0.1038
vn 0.8053 0.5494 -0.2227
vn 0.2906 0.7724 -0.5647
vn 0.0078 0.6883 -0.7254
vn -0.2691 0.7722 -0.5756
vn -0.7677 0.5766 -0.2795
vn -0.9228 0.3412 -0.1787
vn -0.9357 0.3318 0.1202
vn -0.7757 0.0337 0.6302
vn -0.6151 -0.2198 0.7572
vn -0.3375 -0.1433 0.9304
vn 0.3193 -0.1591 0.9342
vn 0.5810 -0.2460 0.7758
vn 0.7425 -0.0122 0.6697
vn 0.6239 0.5191 -0.5842
vn 0.6151 0.2198 -0.7572
vn 0.3375 0.1433 -0.9304
vn -0.5864 0.5333 -0.6098
vn -0.5810 0.2460 -0.7758
vn -0.7425 0.0122 -0.6697
vn -0.9600 -0.0115 0.2797
vn -0.9506 -0.2926 0.1038
vn -0.8053 -0.5494 0.2227
vn -0.0066 -0.4000 0.9165
vn -0.0078 -0.6883 0.7254
vn 0.2691 -0.7722 0.5756
vn 0.9339 -0.0672 0.3512
vn 0.9228 -0.3412 0.1787
vn 0.9357 -0.3318 -0.1202
vn 0.6289 -0.4053 -0.6635
vn 0.3546 -0.4713 -0.8075
vn 0.2003 -0.2406 -0.9497
vn -0.1932 -0.2261 -0.9548
vn -0.3490 -0.4438 -0.8254
vn -0.6154 -0.3600 -0.7012
vn -0.7357 -0.5354 -0.4148
vn -0.5694 -0.7650 -0.3008
vn -0.5913 -0.8064 -0.0072
vn 0.7330 -0.5807 -0.3543
vn 0.5562 -0.7921 -0.2514
vn 0.2991 -0.8646 -0.4038
vn -0.2798 -0.9405 0.1930
vn -0.0071 -0.9986 0.0533
vn 0.2609 -0.9417 0.2123
vt 0.181819 0.000000
vt 0.227273 0.078731
vt 0.136365 0.078731
vt 0.272728 0.157461
vt 0.318182 0.078731
vt 0.363637 0.157461
vt 0.909091 0.000000
vt 0.954545 0.078731
vt 0.863636 0.078731
vt 0.727273 0.000000
vt 0.772727 0.078731
vt 0.681818 0.078731
vt 0.545455 0.000000
vt 0.590909 0.078731
vt 0.500000 0.078731
vt 0.318182 0.236191
vt 0.090910 0.157461
vt 0.181819 0.157461
vt 0.136365 0.236191
vt 0.818182 0.157461
vt 0.909091 0.157461
vt 0.863636 0.236191
vt 0.636364 0.157461
vt 0.727273 0.157461
vt 0.681818 0.236191
vt 0.454546 0.157461
vt 0.545455 0.157461
vt 0.500000 0.236191
vt 0.227273 0.236191
vt 0.045455 0.236191
vt 0.772727 0.236191
vt 0.590909 0.236191
vt 0.409092 0.236191
vt 0.181819 0.314921
vt 0.272728 0.314921
vt 0.227273 0.393651
vt 0.000000 0.314921
vt 0.090910 0.314921
vt 0.045455 0.393651
vt 0.727273 0.314921
vt 0.818182 0.314921
vt 0.772727 0.393651
vt 0.545455 0.314921
vt 0.636364 0.314921
vt 0.590909 0.393651
vt 0.363637 0.314921
vt 0.454546 0.314921
vt 0.409092 0.393651
vt 0.500000 0.393651
vt 0.454546 0.472382
vt 0.681818 0.393651
vt 0.636364 0.472382
vt 0.863636 0.393651
vt 0.818182 0.472382
vt 0.909091 0.314921
vt 0.136365 0.393651
vt 0.090910 0.472382
vt 0.318182 0.393651
vt 0.272728 0.472382
vt 0.954545 0.236191
vt 1.000000 0.157461
vt 0.409092 0.078731
vt 0.363637 0.000000
s 0
usemtl Material
f 349/224/228 362/225/228 361/226/228
f 350/227/229 362/228/229 364/229/229
f 349/230/230 361/231/230 366/232/230
f 349/233/231 366/234/231 368/235/231
f 349/236/232 368/237/232 365/238/232
f 350/227/233 364/229/233 371/239/233
f 351/240/234 363/241/234 373/242/234
f 352/243/235 367/244/235 375/245/235
f 353/246/236 369/247/236 377/248/236
f 354/249/237 370/250/237 379/251/237
f 350/227/238 371/239/238 374/252/238
f 351/240/239 373/242/239 376/253/239
f 352/243/240 375/245/240 378/254/240
f 353/246/241 377/248/241 380/255/241
f 354/249/242 379/251/242 372/256/242
f 355/257/243 381/258/243 386/259/243
f 356/260/244 382/261/244 388/262/244
f 357/263/245 383/264/245 389/265/245
f 358/266/246 384/267/246 390/268/246
f 359/269/247 385/270/247 387/271/247
f 387/271/248 390/272/248 360/273/248
f 387/271/249 385/270/249 390/272/249
f 385/270/250 358/266/250 390/272/250
f 390/268/251 389/274/251 360/275/251
f 390/268/252 384/267/252 389/274/252
f 384/267/253 357/263/253 389/274/253
f 389/265/254 388/276/254 360/277/254
f 389/265/255 383/264/255 388/276/255
f 383/264/256 356/278/256 388/276/256
f 388/262/257 386/279/257 360/280/257
f 388/262/258 382/261/258 386/279/258
f 382/261/259 355/257/259 386/279/259
f 386/259/260 387/281/260 360/282/260
f 386/259/261 381/258/261 387/281/261
f 381/258/262 359/269/262 387/281/262
f 372/256/263 385/270/263 359/269/263
f 372/256/264 379/251/264 385/270/264
f 379/251/265 358/266/265 385/270/265
f 380/255/266 384/267/266 358/266/266
f 380/255/267 377/248/267 384/267/267
f 377/248/268 357/263/268 384/267/268
f 378/254/269 383/264/269 357/263/269
f 378/254/270 375/245/270 383/264/270
f 375/245/271 356/278/271 383/264/271
f 376/253/272 382/261/272 356/260/272
f 376/253/273 373/242/273 382/261/273
f 373/242/274 355/257/274 382/261/274
f 374/252/275 381/258/275 355/257/275
f 374/252/276 371/239/276 381/258/276
f 371/239/277 359/269/277 381/258/277
f 379/251/278 380/255/278 358/266/278
f 379/251/279 370/250/279 380/255/279
f 370/250/280 353/246/280 380/255/280
f 377/248/281 378/254/281 357/263/281
f 377/248/282 369/247/282 378/254/282
f 369/247/283 352/243/283 378/254/283
f 375/245/284 376/283/284 356/278/284
f 375/245/285 367/244/285 376/283/285
f 367/244/286 351/284/286 376/283/286
f 373/242/287 374/252/287 355/257/287
f 373/242/288 363/241/288 374/252/288
f 363/241/289 350/227/289 374/252/289
f 371/239/290 372/256/290 359/269/290
f 371/239/291 364/229/291 372/256/291
f 364/229/292 354/249/292 372/256/292
f 365/238/293 370/250/293 354/249/293
f 365/238/294 368/237/294 370/250/294
f 368/237/295 353/246/295 370/250/295
f 368/235/296 369/247/296 353/246/296
f 368/235/297 366/234/297 369/247/297
f 366/234/298 352/243/298 369/247/298
f 366/232/299 367/244/299 352/243/299
f 366/232/300 361/231/300 367/244/300
f 361/231/301 351/284/301 367/244/301
f 364/229/302 365/285/302 354/249/302
f 364/229/303 362/228/303 365/285/303
f 362/228/304 349/286/304 365/285/304
f 361/226/305 363/241/305 351/240/305
f 361/226/306 362/225/306 363/241/306
f 362/225/307 350/227/307 363/241/307
o REye
v -2.744153 11.526791 5.671066
v -2.725291 11.576393 5.774859
v -2.829447 11.527975 5.737511
v -2.857748 11.548603 5.633883
v -2.771081 11.609770 5.607186
v -2.689219 11.626945 5.694314
v -2.827230 11.628864 5.801824
v -2.909092 11.611689 5.714695
v -2.873020 11.662241 5.634151
v -2.768864 11.710659 5.671499
v -2.740564 11.690031 5.775127
v -2.854158 11.711843 5.737944
v -2.784631 11.511242 5.704250
v -2.723410 11.539701 5.726203
v -2.773544 11.540398 5.765259
v -2.691120 11.598571 5.739868
v -2.702207 11.569415 5.678860
v -2.801265 11.523367 5.643340
v -2.851400 11.524063 5.682395
v -2.750324 11.559319 5.627648
v -2.817094 11.572141 5.605792
v -2.718035 11.618189 5.641312
v -2.721300 11.635652 5.787369
v -2.700097 11.665365 5.740026
v -2.833463 11.571239 5.781108
v -2.772241 11.599699 5.803061
v -2.898215 11.573269 5.668984
v -2.881580 11.561144 5.729896
v -2.826071 11.638935 5.605948
v -2.877012 11.602983 5.621641
v -2.716731 11.677490 5.679114
v -2.764849 11.667395 5.627902
v -2.781218 11.666493 5.803218
v -2.880277 11.620445 5.767698
v -2.907191 11.640063 5.669142
v -2.824767 11.698236 5.643751
v -2.746911 11.714571 5.726615
v -2.847987 11.679315 5.781362
v -2.797046 11.715267 5.765670
v -2.896104 11.669219 5.730150
v -2.874902 11.698933 5.682807
v -2.813681 11.727392 5.704760
vn 0.4022 -0.9134 0.0626
vn 0.7544 -0.5098 0.4136
vn 0.1726 -0.9560 -0.2374
vn 0.3328 -0.7314 -0.5953
vn 0.6582 -0.5546 -0.5091
vn 0.7588 -0.1831 0.6250
vn -0.1826 -0.7062 0.6840
vn -0.6603 -0.7014 -0.2684
vn 0.0256 0.0058 -0.9997
vn 0.8176 0.2966 -0.4935
vn 0.4226 -0.2144 0.8806
vn -0.4932 -0.6398 0.5895
vn -0.7274 -0.3855 -0.5677
vn 0.1876 0.3143 -0.9306
vn 0.8865 0.4358 -0.1553
vn -0.2515 0.2731 0.9285
vn -0.8812 0.0735 0.4670
vn -0.7544 0.5098 -0.4136
vn 0.0148 0.9011 -0.4333
vn 0.3191 0.8618 0.3942
vn -0.1726 0.9560 0.2374
vn 0.1363 0.9781 0.1575
vn 0.2371 0.9578 -0.1624
vn -0.4022 0.9134 -0.0626
vn -0.2780 0.8854 -0.3726
vn -0.4231 0.7155 -0.5559
vn -0.7184 0.6870 0.1094
vn -0.8663 0.4933 -0.0783
vn -0.9767 0.1983 0.0827
vn -0.6582 0.5546 0.5091
vn -0.7295 0.2526 0.6356
vn -0.5500 0.1095 0.8279
vn -0.3328 0.7314 0.5953
vn -0.1544 0.5708 0.8065
vn 0.1564 0.6339 0.7575
vn 0.6603 0.7014 0.2684
vn 0.7317 0.6785 -0.0648
vn 0.5445 0.7931 -0.2732
vn 0.1826 0.7062 -0.6840
vn 0.0530 0.5360 -0.8426
vn -0.2301 0.5267 -0.8183
vn -0.7588 0.1831 -0.6250
vn -0.8770 -0.1168 -0.4661
vn -0.9836 -0.1319 -0.1232
vn -0.8176 -0.2966 0.4935
vn -0.6226 -0.4109 0.6660
vn -0.4966 -0.2456 0.8325
vn -0.0256 -0.0058 0.9997
vn 0.2720 0.0343 0.9617
vn 0.3977 0.3333 0.8548
vn 0.4932 0.6398 -0.5895
vn 0.6226 0.4109 -0.6660
vn 0.4966 0.2456 -0.8325
vn -0.4226 0.2144 -0.8806
vn -0.2720 -0.0343 -0.9617
vn -0.3977 -0.3333 -0.8548
vn -0.8865 -0.4358 0.1553
vn -0.7317 -0.6785 0.0648
vn -0.5445 -0.7931 0.2732
vn -0.1876 -0.3143 0.9306
vn -0.0530 -0.5360 0.8426
vn 0.2301 -0.5267 0.8183
vn 0.7274 0.3855 0.5677
vn 0.8770 0.1168 0.4661
vn 0.9836 0.1319 0.1232
vn 0.8812 -0.0735 -0.4670
vn 0.7295 -0.2526 -0.6356
vn 0.5500 -0.1095 -0.8279
vn 0.2515 -0.2731 -0.9285
vn 0.1544 -0.5708 -0.8065
vn -0.1564 -0.6339 -0.7575
vn -0.3191 -0.8618 -0.3942
vn -0.1363 -0.9781 -0.1575
vn -0.2371 -0.9578 0.1624
vn 0.9767 -0.1983 -0.0827
vn 0.8663 -0.4933 0.0783
vn 0.7184 -0.6870 -0.1094
vn -0.0148 -0.9011 0.4333
vn 0.2780 -0.8854 0.3726
vn 0.4231 -0.7155 0.5559
vt 0.181819 0.000000
vt 0.227273 0.078731
vt 0.136365 0.078731
vt 0.272728 0.157461
vt 0.318182 0.078731
vt 0.363637 0.157461
vt 0.909091 0.000000
vt 0.954545 0.078731
vt 0.863636 0.078731
vt 0.727273 0.000000
vt 0.772727 0.078731
vt 0.681818 0.078731
vt 0.545455 0.000000
vt 0.590909 0.078731
vt 0.500000 0.078731
vt 0.318182 0.236191
vt 0.090910 0.157461
vt 0.181819 0.157461
vt 0.136365 0.236191
vt 0.818182 0.157461
vt 0.909091 0.157461
vt 0.863636 0.236191
vt 0.636364 0.157461
vt 0.727273 0.157461
vt 0.681818 0.236191
vt 0.454546 0.157461
vt 0.545455 0.157461
vt 0.500000 0.236191
vt 0.227273 0.236191
vt 0.045455 0.236191
vt 0.772727 0.236191
vt 0.590909 0.236191
vt 0.409092 0.236191
vt 0.181819 0.314921
vt 0.272728 0.314921
vt 0.227273 0.393651
vt 0.000000 0.314921
vt 0.090910 0.314921
vt 0.045455 0.393651
vt 0.727273 0.314921
vt 0.818182 0.314921
vt 0.772727 0.393651
vt 0.545455 0.314921
vt 0.636364 0.314921
vt 0.590909 0.393651
vt 0.363637 0.314921
vt 0.454546 0.314921
vt 0.409092 0.393651
vt 0.500000 0.393651
vt 0.454546 0.472382
vt 0.681818 0.393651
vt 0.636364 0.472382
vt 0.863636 0.393651
vt 0.818182 0.472382
vt 0.909091 0.314921
vt 0.136365 0.393651
vt 0.090910 0.472382
vt 0.318182 0.393651
vt 0.272728 0.472382
vt 0.954545 0.236191
vt 1.000000 0.157461
vt 0.409092 0.078731
vt 0.363637 0.000000
s 0
usemtl Material.004
f 391/287/308 404/288/308 403/289/308
f 392/290/309 404/291/309 406/292/309
f 391/293/310 403/294/310 408/295/310
f 391/296/311 408/297/311 410/298/311
f 391/299/312 410/300/312 407/301/312
f 392/290/313 406/292/313 413/302/313
f 393/303/314 405/304/314 415/305/314
f 394/306/315 409/307/315 417/308/315
f 395/309/316 411/310/316 419/311/316
f 396/312/317 412/313/317 421/314/317
f 392/290/318 413/302/318 416/315/318
f 393/303/319 415/305/319 418/316/319
f 394/306/320 417/308/320 420/317/320
f 395/309/321 419/311/321 422/318/321
f 396/312/322 421/314/322 414/319/322
f 397/320/323 423/321/323 428/322/323
f 398/323/324 424/324/324 430/325/324
f 399/326/325 425/327/325 431/328/325
f 400/329/326 426/330/326 432/331/326
f 401/332/327 427/333/327 429/334/327
f 429/334/328 432/335/328 402/336/328
f 429/334/329 427/333/329 432/335/329
f 427/333/330 400/329/330 432/335/330
f 432/331/331 431/337/331 402/338/331
f 432/331/332 426/330/332 431/337/332
f 426/330/333 399/326/333 431/337/333
f 431/328/334 430/339/334 402/340/334
f 431/328/335 425/327/335 430/339/335
f 425/327/336 398/341/336 430/339/336
f 430/325/337 428/342/337 402/343/337
f 430/325/338 424/324/338 428/342/338
f 424/324/339 397/320/339 428/342/339
f 428/322/340 429/344/340 402/345/340
f 428/322/341 423/321/341 429/344/341
f 423/321/342 401/332/342 429/344/342
f 414/319/343 427/333/343 401/332/343
f 414/319/344 421/314/344 427/333/344
f 421/314/345 400/329/345 427/333/345
f 422/318/346 426/330/346 400/329/346
f 422/318/347 419/311/347 426/330/347
f 419/311/348 399/326/348 426/330/348
f 420/317/349 425/327/349 399/326/349
f 420/317/350 417/308/350 425/327/350
f 417/308/351 398/341/351 425/327/351
f 418/316/352 424/324/352 398/323/352
f 418/316/353 415/305/353 424/324/353
f 415/305/354 397/320/354 424/324/354
f 416/315/355 423/321/355 397/320/355
f 416/315/356 413/302/356 423/321/356
f 413/302/357 401/332/357 423/321/357
f 421/314/358 422/318/358 400/329/358
f 421/314/359 412/313/359 422/318/359
f 412/313/360 395/309/360 422/318/360
f 419/311/361 420/317/361 399/326/361
f 419/311/362 411/310/362 420/317/362
f 411/310/363 394/306/363 420/317/363
f 417/308/364 418/346/364 398/341/364
f 417/308/365 409/307/365 418/346/365
f 409/307/366 393/347/366 418/346/366
f 415/305/367 416/315/367 397/320/367
f 415/305/368 405/304/368 416/315/368
f 405/304/369 392/290/369 416/315/369
f 413/302/370 414/319/370 401/332/370
f 413/302/371 406/292/371 414/319/371
f 406/292/372 396/312/372 414/319/372
f 407/301/373 412/313/373 396/312/373
f 407/301/374 410/300/374 412/313/374
f 410/300/375 395/309/375 412/313/375
f 410/298/376 411/310/376 395/309/376
f 410/298/377 408/297/377 411/310/377
f 408/297/378 394/306/378 411/310/378
f 408/295/379 409/307/379 394/306/379
f 408/295/380 403/294/380 409/307/380
f 403/294/381 393/347/381 409/307/381
f 406/292/382 407/348/382 396/312/382
f 406/292/383 404/291/383 407/348/383
f 404/291/384 391/349/384 407/348/384
f 403/289/385 405/304/385 393/303/385
f 403/289/386 404/288/386 405/304/386
f 404/288/387 392/290/387 405/304/387
